<svg width="1280" height="560" viewBox="0 0 1280 560" fill="none" xmlns="http://www.w3.org/2000/svg">
<defs><linearGradient id="sBg" x1="0" y1="0" x2="1280" y2="560"><stop stop-color="#060A07"/><stop offset="1" stop-color="#07120A"/></linearGradient></defs>
<rect width="1280" height="560" rx="30" fill="url(#sBg)"/><rect x="1" y="1" width="1278" height="558" rx="29" stroke="#203126" stroke-width="2"/>
<text x="48" y="54" fill="#20E76B" font-family="Inter,Segoe UI,Arial,sans-serif" font-size="12" font-weight="700" letter-spacing="2">CAPACIDADES</text>
<text x="48" y="101" fill="#F4F7F5" font-family="Inter,Segoe UI,Arial,sans-serif" font-size="34" font-weight="760" letter-spacing="-1">Lo que construimos.</text>
<text x="48" y="132" fill="#A3AEA7" font-family="Inter,Segoe UI,Arial,sans-serif" font-size="15">Soluciones digitales integrales adaptadas a objetivos, usuarios y procesos reales.</text>

<!-- Cards -->
<g>
 <rect x="48" y="176" width="280" height="330" rx="22" fill="#0C120E" stroke="#23402B"/>
 <circle cx="88" cy="218" r="20" fill="#102B19"/><path d="M78 218H98M88 208V228" stroke="#20E76B" stroke-width="2" stroke-linecap="round"/>
 <text x="72" y="278" fill="#F4F7F5" font-family="Inter,Segoe UI,Arial,sans-serif" font-size="22" font-weight="730">Software a medida</text>
 <text x="72" y="312" fill="#A3AEA7" font-family="Inter,Segoe UI,Arial,sans-serif" font-size="14">Sistemas empresariales y SaaS</text><text x="72" y="334" fill="#A3AEA7" font-family="Inter,Segoe UI,Arial,sans-serif" font-size="14">con arquitectura preparada para</text><text x="72" y="356" fill="#A3AEA7" font-family="Inter,Segoe UI,Arial,sans-serif" font-size="14">evolucionar.</text>
 <text x="72" y="410" fill="#73FF9E" font-family="Inter,Segoe UI,Arial,sans-serif" font-size="12" font-weight="700">PLATAFORMAS · SAAS · APIs</text>
 <line x1="72" y1="447" x2="296" y2="447" stroke="#203126"/><text x="72" y="478" fill="#6C7B71" font-family="Inter,Segoe UI,Arial,sans-serif" font-size="12">01 / ENGINEERING</text>
</g>
<g>
 <rect x="350" y="176" width="280" height="330" rx="22" fill="#0C120E" stroke="#23402B"/>
 <circle cx="390" cy="218" r="20" fill="#102B19"/><rect x="381" y="210" width="18" height="16" rx="2" stroke="#20E76B" stroke-width="2"/><path d="M384 230H396" stroke="#20E76B" stroke-width="2" stroke-linecap="round"/>
 <text x="374" y="278" fill="#F4F7F5" font-family="Inter,Segoe UI,Arial,sans-serif" font-size="22" font-weight="730">Web &amp; Mobile</text>
 <text x="374" y="312" fill="#A3AEA7" font-family="Inter,Segoe UI,Arial,sans-serif" font-size="14">Aplicaciones de alto rendimiento,</text><text x="374" y="334" fill="#A3AEA7" font-family="Inter,Segoe UI,Arial,sans-serif" font-size="14">responsivas, conectadas y listas</text><text x="374" y="356" fill="#A3AEA7" font-family="Inter,Segoe UI,Arial,sans-serif" font-size="14">para múltiples canales.</text>
 <text x="374" y="410" fill="#73FF9E" font-family="Inter,Segoe UI,Arial,sans-serif" font-size="12" font-weight="700">WEB · IOS · ANDROID</text>
 <line x1="374" y1="447" x2="598" y2="447" stroke="#203126"/><text x="374" y="478" fill="#6C7B71" font-family="Inter,Segoe UI,Arial,sans-serif" font-size="12">02 / PRODUCTS</text>
</g>
<g>
 <rect x="652" y="176" width="280" height="330" rx="22" fill="#0C120E" stroke="#23402B"/>
 <circle cx="692" cy="218" r="20" fill="#102B19"/><path d="M684 224L700 208M685 209L699 223" stroke="#20E76B" stroke-width="2" stroke-linecap="round"/>
 <text x="676" y="278" fill="#F4F7F5" font-family="Inter,Segoe UI,Arial,sans-serif" font-size="22" font-weight="730">Diseño UI/UX</text>
 <text x="676" y="312" fill="#A3AEA7" font-family="Inter,Segoe UI,Arial,sans-serif" font-size="14">Experiencias, prototipos y sistemas</text><text x="676" y="334" fill="#A3AEA7" font-family="Inter,Segoe UI,Arial,sans-serif" font-size="14">de diseño que convierten tecnología</text><text x="676" y="356" fill="#A3AEA7" font-family="Inter,Segoe UI,Arial,sans-serif" font-size="14">en productos claros.</text>
 <text x="676" y="410" fill="#73FF9E" font-family="Inter,Segoe UI,Arial,sans-serif" font-size="12" font-weight="700">RESEARCH · UI · PROTOTYPES</text>
 <line x1="676" y1="447" x2="900" y2="447" stroke="#203126"/><text x="676" y="478" fill="#6C7B71" font-family="Inter,Segoe UI,Arial,sans-serif" font-size="12">03 / EXPERIENCE</text>
</g>
<g>
 <rect x="954" y="176" width="278" height="330" rx="22" fill="#0E1C12" stroke="#2E7042"/>
 <circle cx="994" cy="218" r="20" fill="#153921"/><path d="M986 218H1002M994 210V226M988 212L1000 224M1000 212L988 224" stroke="#20E76B" stroke-width="1.8" stroke-linecap="round"/>
 <text x="978" y="278" fill="#F4F7F5" font-family="Inter,Segoe UI,Arial,sans-serif" font-size="22" font-weight="730">IA &amp; Automatización</text>
 <text x="978" y="312" fill="#A3AEA7" font-family="Inter,Segoe UI,Arial,sans-serif" font-size="14">Flujos inteligentes que reducen</text><text x="978" y="334" fill="#A3AEA7" font-family="Inter,Segoe UI,Arial,sans-serif" font-size="14">trabajo manual, conectan sistemas</text><text x="978" y="356" fill="#A3AEA7" font-family="Inter,Segoe UI,Arial,sans-serif" font-size="14">y activan datos.</text>
 <text x="978" y="410" fill="#73FF9E" font-family="Inter,Segoe UI,Arial,sans-serif" font-size="12" font-weight="700">AI · N8N · DATA FLOWS</text>
 <line x1="978" y1="447" x2="1200" y2="447" stroke="#203126"/><text x="978" y="478" fill="#6C7B71" font-family="Inter,Segoe UI,Arial,sans-serif" font-size="12">04 / INTELLIGENCE</text>
</g>
</svg>
